<?xml version="1.0" standalone="no"?>
<!DOCTYPE svg PUBLIC "-//W3C//DTD SVG 20010904//EN"
 "http://www.w3.org/TR/2001/REC-SVG-20010904/DTD/svg10.dtd">
<svg version="1.0" xmlns="http://www.w3.org/2000/svg"
 width="515.000000pt" height="484.000000pt" viewBox="0 0 515.000000 484.000000"
 preserveAspectRatio="xMidYMid meet">

<g transform="translate(0.000000,484.000000) scale(0.100000,-0.100000)"
fill="currentColor" stroke="none">
<path d="M2430 4555 c-263 -53 -478 -212 -597 -441 -38 -73 -83 -215 -83 -263
0 -21 -2 -21 -321 -21 -214 0 -335 -4 -360 -12 -68 -20 -74 -45 -104 -423 -14
-181 -34 -409 -45 -505 -10 -96 -24 -229 -30 -295 -6 -66 -17 -183 -25 -260
-19 -186 -41 -426 -65 -730 -31 -388 -41 -498 -61 -660 -39 -305 -43 -366 -25
-427 23 -81 84 -142 156 -157 80 -17 3354 -11 3391 6 42 18 98 73 120 114 27
54 25 138 -16 584 -19 209 -42 461 -50 560 -28 327 -56 629 -65 705 -24 186
-56 534 -120 1297 -10 121 -24 162 -67 190 -25 16 -56 18 -355 15 l-328 -4 0
29 c0 83 -75 266 -154 377 -110 154 -267 255 -483 311 -107 28 -206 31 -313
10z m350 -235 c127 -45 254 -158 314 -280 39 -80 78 -195 68 -204 -9 -9 -1180
-7 -1186 2 -20 32 82 263 147 333 65 70 204 149 300 169 23 5 98 8 167 6 98
-3 139 -8 190 -26z m-1034 -727 c-3 -21 -6 -73 -6 -115 l0 -78 -65 -29 c-82
-37 -166 -116 -202 -190 -24 -47 -28 -69 -28 -136 0 -70 4 -89 32 -145 64
-129 156 -205 276 -230 78 -16 144 -5 227 36 82 41 131 94 173 183 29 60 32
75 31 161 0 84 -3 101 -27 148 -35 66 -85 123 -143 159 l-44 28 0 120 0 120
597 -3 c328 -1 598 -4 599 -5 1 -1 4 -55 6 -119 l5 -118 -49 -31 c-59 -38
-130 -118 -161 -179 -18 -37 -22 -62 -22 -135 1 -83 4 -95 35 -154 45 -83 107
-146 178 -179 51 -24 69 -27 167 -27 103 0 113 2 164 30 84 47 152 138 187
254 37 123 -6 255 -115 354 -43 39 -81 61 -122 70 -26 7 -26 8 -32 119 -3 62
-3 115 1 118 4 4 117 4 252 0 l245 -5 6 -85 c17 -222 32 -390 50 -550 17 -154
45 -437 79 -800 6 -63 20 -194 30 -290 25 -221 25 -257 3 -264 -10 -3 -699 -8
-1530 -11 -1203 -4 -1513 -2 -1514 8 -1 6 -1 14 -1 17 1 10 32 355 42 470 6
63 18 187 26 275 8 88 21 234 29 325 8 91 21 228 30 305 43 399 55 519 55 560
l0 45 213 3 c116 1 238 3 271 5 l59 2 -7 -37z m38 -437 c10 -4 51 -11 90 -17
85 -12 116 -35 116 -88 0 -44 -27 -90 -73 -125 -46 -35 -138 -37 -187 -3 -81
54 -98 157 -40 242 l32 47 22 -25 c11 -13 30 -27 40 -31z m1543 -6 c54 0 103
-4 109 -8 65 -45 55 -172 -18 -224 -97 -68 -239 -1 -268 128 -14 61 25 133 61
114 10 -6 62 -10 116 -10z m784 -1805 c6 -38 17 -96 24 -127 11 -47 11 -59 0
-68 -31 -26 -326 -30 -1715 -28 -1113 2 -1434 6 -1433 15 2 7 7 69 12 137 5
69 12 129 14 133 3 5 698 8 1546 8 l1540 0 12 -70z m2 -464 l42 -6 14 -148 c8
-81 12 -149 10 -152 -4 -4 -2843 -10 -3131 -6 l-118 1 0 53 c1 65 24 239 34
255 6 10 341 12 1557 10 853 -1 1569 -4 1592 -7z"/>
</g>
</svg>
